<?xml version="1.0" encoding="UTF-8" standalone="no"?>
<!DOCTYPE svg PUBLIC "-//W3C//DTD SVG 1.1//EN" "http://www.w3.org/Graphics/SVG/1.1/DTD/svg11.dtd">
<svg width="100%" height="100%" viewBox="0 0 3308 4678" version="1.1" xmlns="http://www.w3.org/2000/svg" xmlns:xlink="http://www.w3.org/1999/xlink" xml:space="preserve" xmlns:serif="http://www.serif.com/" style="fill-rule:evenodd;clip-rule:evenodd;stroke-linejoin:round;stroke-miterlimit:2;">
    <g transform="matrix(1.33333,0,0,1.33333,0,0)">
        <g transform="matrix(1.3018,0,0,1.30681,401.346,143.599)">
            <path d="M444.365,1818.9L543.942,1818.9C503.022,1773.77 464.113,1726.99 433.158,1682.5C406.044,1643.53 384.45,1612.17 364.637,1585.36C629.147,1250.23 1272.94,385.267 1272.94,385.267C1285.3,368.664 1281.85,345.152 1265.24,332.795C1248.64,320.439 1225.13,323.886 1212.77,340.489C1212.77,340.489 585.3,1183.66 316.293,1525.6C297.24,1504.68 276.892,1485.67 251.732,1465.67C160.194,1392.9 73.082,1445.03 35.393,1489.59C-0.396,1531.89 -30.968,1642 60.296,1714.19C165.747,1797.6 271.38,1699.78 285.487,1683.17C294.192,1672.92 304.511,1660.43 316.223,1645.98C332.317,1668.46 350.018,1694.32 371.594,1725.33C392.834,1755.86 417.681,1787.44 444.365,1818.9ZM269,1585.13C250.23,1563.61 230.346,1544.48 205.063,1524.38C157.441,1486.52 112.261,1514.84 92.654,1538.02C73.935,1560.15 59.09,1617.61 106.825,1655.37C164.001,1700.59 220.671,1643.63 228.32,1634.62C239.385,1621.59 253.066,1604.93 269,1585.13Z" style="fill:url(#_Linear1);"/>
        </g>
        <g transform="matrix(1.07799,-0.0641018,0.0641018,1.07799,485.45,-9.11968)">
            <path d="M1460.24,576.31C1460.24,576.31 1466.14,545.9 1476.49,533.91C1486.84,521.92 1515.21,502 1515.21,502C1515.21,502 1501.12,498.06 1490.9,501.06C1480.68,504.06 1475.44,508.27 1475.44,508.27L1472.16,506.54L1482.64,498.1C1482.64,498.1 1463.07,491.28 1453.21,498.65C1443.35,506.02 1431.76,526.44 1425.66,537.19C1419.56,547.94 1415.42,552.73 1415.42,552.73C1415.42,552.73 1404.34,562.25 1395.35,556.82C1386.36,551.39 1353.09,526.18 1345.68,522.97C1338.27,519.76 1272.42,490.66 1261.59,494.73L1264.59,508.18L1312.22,525.6L1310.22,531.6L1267,516.4C1267,516.4 1264.21,516.32 1264.93,518.8L1268.32,530.35L1320.08,549.24L1318.08,555.24L1273.73,539.56C1273.73,539.56 1270.73,538.65 1271.42,541.13C1272.11,543.61 1277.42,555.49 1277.42,555.49L1323.96,572.33L1321.76,577.45L1286.76,565.3C1286.76,565.3 1283.96,565.22 1284.69,567.7C1285.42,570.18 1289.05,576.27 1295.24,581.63C1301.43,586.99 1312.6,593.57 1316.74,595.05C1320.88,596.53 1328.93,596.98 1335.09,597.74C1340.66,598.42 1343.48,597.97 1349.09,604.4C1354.7,610.83 1355.51,616.86 1354.54,619.83C1353.57,622.8 1351.27,631.762 1345.61,639.991C1341.54,645.904 1324.35,666.58 1324.35,666.58L1249.29,755.504L1259.09,763.721L1339.89,667.427L1349.68,675.644L1307.23,726.239L1317.02,734.456L1348.52,696.918L1358.31,705.135L1315.85,755.73L1325.65,763.947L1406.52,667.39L1416.4,675.677L1365.57,736.257L1375.36,744.474L1427.4,682.455C1427.4,682.455 1446.85,660.04 1454.36,638.15C1461.87,616.26 1467.26,594 1460.24,576.31Z" style="fill:rgb(41,41,41);fill-rule:nonzero;"/>
        </g>
    </g>
    <defs>
        <linearGradient id="_Linear1" x1="0" y1="0" x2="1" y2="0" gradientUnits="userSpaceOnUse" gradientTransform="matrix(1280.17,0,0,1493.51,0.175863,1072.14)"><stop offset="0" style="stop-color:rgb(37,170,225);stop-opacity:1"/><stop offset="1" style="stop-color:rgb(64,228,149);stop-opacity:1"/></linearGradient>
    </defs>
</svg>
